<?xml version="1.0" encoding="utf-8"?>
<!-- Generator: Adobe Illustrator 16.0.0, SVG Export Plug-In . SVG Version: 6.00 Build 0)  -->
<!DOCTYPE svg PUBLIC "-//W3C//DTD SVG 1.1//EN" "http://www.w3.org/Graphics/SVG/1.1/DTD/svg11.dtd">
<svg version="1.1" id="Layer_1" xmlns="http://www.w3.org/2000/svg" xmlns:xlink="http://www.w3.org/1999/xlink" x="0px" y="0px"
	 width="354px" height="354px" viewBox="0 0 354 354" enable-background="new 0 0 354 354" xml:space="preserve">
<rect x="6.568" y="6.727" fill="none" stroke="#FFFFFF" stroke-width="9.0552" width="341.705" height="341.705"/>
<path fill="#FFFFFF" d="M85.467,32.607c-28.871,0-50.361,14.977-50.361,42.326c0,25.396,14.543,36.684,40.377,47.756l7.594,3.258
	c13.025,5.641,18.668,9.334,18.668,18.449c0,7.379-5.643,13.027-14.543,13.027c-8.682,0-14.324-3.691-19.537-13.027l-23.658,15.195
	c9.986,17.58,23.877,24.312,43.195,24.312c27.135,0,44.502-17.365,44.502-40.158c0-24.746-14.547-36.469-36.467-45.803l-7.6-3.254
	c-13.891-6.078-22.143-9.77-22.143-20.191c0-8.68,8.035-14.975,20.621-14.975c14.98,0,23.445,7.816,29.959,18.449l24.746-14.326
	C131.92,46.066,113.686,32.607,85.467,32.607"/>
<path fill="#FFFFFF" d="M202.68,32.607c-26.914,0-45.365,14.322-45.365,45.801V182.17h30.389V78.842
	c0-15.195,6.293-19.104,16.281-19.104c10.418,0,14.758,7.166,19.533,15.631l24.746-14.977
	C241.104,45.197,226.99,32.607,202.68,32.607"/>
<rect x="2.041" y="2.199" fill="none" width="350.76" height="350.76"/>
</svg>
